<svg width="40" height="40" viewBox="0 0 40 40" fill="none" xmlns="http://www.w3.org/2000/svg">
<path d="M34.2338 34.0348C37.9278 30.2981 39.9996 25.2557 40 20.0014C40.0004 14.747 37.9292 9.70432 34.2358 5.9671C34.197 5.90792 34.1466 5.85717 34.0878 5.8179C30.346 2.09188 25.2805 -3.74824e-05 19.9999 5.03705e-10C14.7194 3.74835e-05 9.65388 2.09203 5.91213 5.8181C5.85331 5.85728 5.80303 5.90796 5.76433 5.9671C2.07082 9.70432 -0.000374355 14.747 5.07516e-08 20.0015C0.000374457 25.2559 2.07229 30.2983 5.76633 34.035C5.8042 34.0927 5.85331 34.1423 5.91073 34.1806C9.65265 37.9075 14.7188 40 20 40C25.2813 40 30.3474 37.9075 34.0894 34.1806C34.1468 34.1422 34.1959 34.0926 34.2338 34.0348ZM1.61856 20.8H11.1805C11.0058 25.1046 9.3143 29.2086 6.40513 32.386C3.49743 29.2066 1.80272 25.1046 1.61856 20.8ZM6.40513 7.61409C9.31437 10.7915 11.006 14.8955 11.1807 19.2001H1.61876C1.80287 14.8955 3.49751 10.7935 6.40513 7.61409ZM38.3815 19.2001H28.8196C28.9943 14.8955 30.6858 10.7915 33.595 7.61409C36.5027 10.7934 38.1974 14.8955 38.3815 19.2001ZM27.217 19.2001H20.8V1.61852C25.1414 1.80464 29.2755 3.52706 32.4648 6.4785C29.2541 9.95731 27.3928 14.4693 27.217 19.2001ZM19.2001 19.2001H12.7831C12.6073 14.4693 10.746 9.95731 7.53532 6.4785C10.7246 3.52706 14.8587 1.80464 19.2001 1.61852V19.2001ZM12.7831 20.8H19.2001V38.3816C14.8587 38.1954 10.7246 36.473 7.53532 33.5216C10.746 30.0428 12.6073 25.5308 12.7831 20.8ZM20.8 20.8H27.217C27.3928 25.5308 29.2541 30.0428 32.4648 33.5216C29.2755 36.473 25.1414 38.1954 20.8 38.3816V20.8ZM28.8194 20.8H38.3813C38.1972 25.1046 36.5026 29.2066 33.595 32.386C30.6857 29.2086 28.9941 25.1046 28.8194 20.8Z" fill="white"/>
</svg>
