<svg width="40" height="40" viewBox="0 0 40 40" fill="none" xmlns="http://www.w3.org/2000/svg">
<path d="M39.9602 21.2463C39.9664 21.2036 39.9692 21.1604 39.9684 21.1171C39.989 20.7471 40.0002 20.3751 40.0002 20.0001C40.0044 15.4206 38.4294 10.9796 35.5407 7.42609C35.4934 7.34005 35.4305 7.2635 35.3553 7.20029C33.2076 4.62508 30.4496 2.62834 27.3325 1.39207C27.301 1.37761 27.2686 1.36519 27.2355 1.35487C22.5809 -0.451692 17.4188 -0.45162 12.7643 1.35507C12.7316 1.36519 12.6997 1.37742 12.6687 1.39167C9.55129 2.62787 6.79293 4.62469 4.64503 7.20009C4.56977 7.26335 4.50685 7.33997 4.45943 7.42609C1.57072 10.9796 -0.004277 15.4206 8.72334e-06 20.0001C8.72334e-06 20.3751 0.0114088 20.7477 0.0318089 21.1177C0.0310586 21.1604 0.0337337 21.2031 0.0398088 21.2453C0.24474 24.5903 1.29244 27.829 3.08542 30.6602C3.1194 30.7385 3.16572 30.8108 3.22262 30.8744C5.93005 35.0427 10.0877 38.0583 14.8907 39.3374C14.9234 39.3487 14.9568 39.3578 14.9907 39.3646C18.2761 40.2117 21.7228 40.2118 25.0083 39.365C25.0427 39.3581 25.0765 39.3489 25.1097 39.3376C29.9126 38.0583 34.0702 35.0427 36.7775 30.8744C36.8344 30.8108 36.8808 30.7385 36.9147 30.6602C38.7076 27.8292 39.7552 24.5908 39.9602 21.2461V21.2463ZM27.9311 29.5554L25.8243 26.6554L28.6239 18.0393L32.0329 16.9315L38.3372 21.5169C38.105 24.3626 37.2092 27.1142 35.7217 29.5512L27.9311 29.5554ZM12.0691 29.5554L4.27842 29.5514C2.79092 27.1143 1.89517 24.3626 1.66301 21.5169L7.96724 16.9315L11.3763 18.0391L14.1759 26.6556L12.0691 29.5554ZM4.87443 9.5357L6.88643 15.7393L1.60541 19.5801C1.68354 15.9833 2.82063 12.4894 4.87443 9.5355V9.5357ZM15.6439 25.9958L12.9517 17.7097L20.0001 12.5891L27.0485 17.7101L24.3563 25.9962L15.6439 25.9958ZM38.3948 19.5803L33.1137 15.7391L35.1257 9.5357C37.1795 12.4896 38.3166 15.9835 38.3948 19.5803ZM33.9407 8.00409L31.5387 15.4099L28.1295 16.5175L20.8001 11.1925V7.60809L27.1091 3.02927C29.7398 4.13792 32.078 5.84067 33.9405 8.00409H33.9407ZM25.2861 2.37527L20.0001 6.21169L14.7141 2.37507C18.1623 1.34167 21.8378 1.34167 25.2861 2.37507V2.37527ZM12.8909 3.02927L19.2001 7.60809V11.1925L11.8707 16.5175L8.46164 15.4099L6.05963 8.00389C7.9222 5.84053 10.2604 4.13786 12.8911 3.02927H12.8909ZM5.37483 31.1518L11.8953 31.1552L13.9167 37.3654C10.5255 36.1694 7.5569 34.01 5.37483 31.1518ZM15.7767 37.9104L13.3633 30.4958L15.4701 27.5958H24.5297L26.6365 30.4958L24.2231 37.9104C21.4455 38.5635 18.5543 38.5635 15.7767 37.9104ZM26.0831 37.3654L28.1045 31.1554L34.6249 31.1518C32.4429 34.0099 29.4744 36.1694 26.0833 37.3654H26.0831Z" fill="white"/>
</svg>
