<svg width="40" height="40" viewBox="0 0 40 40" fill="none" xmlns="http://www.w3.org/2000/svg">
<path d="M9.69633 28.3385V28.3306C9.97437 28.2577 10.2506 28.1779 10.5246 28.0912L10.5267 28.0905C14.7355 26.7244 18.565 24.3913 21.7076 21.2786L21.708 21.2782C24.0322 18.9676 25.8938 16.2352 27.193 13.2276L27.1934 13.2265C27.6736 12.1025 27.9736 11.1638 28.1533 10.5123C28.2217 10.2656 28.2832 10.0171 28.3377 9.76696L28.3378 9.76697L28.3388 9.76197L28.3745 9.58357L28.3745 9.58358L28.3754 9.57878C28.4966 8.9181 29.0999 8.4492 29.7458 8.55597L29.7467 8.55612C29.9008 8.58112 30.0485 8.63621 30.1813 8.71824C30.3141 8.80027 30.4293 8.90761 30.5205 9.03413C30.6117 9.16064 30.6771 9.30385 30.7128 9.45557C30.7414 9.57674 30.7506 9.70143 30.7404 9.8251L30.7211 9.84444V9.95329L30.709 10.0171C30.7089 10.0176 30.7088 10.0181 30.7087 10.0185C30.6334 10.396 30.5445 10.7707 30.4421 11.1417L30.442 11.1422C30.2389 11.8836 29.904 12.9249 29.3763 14.1576C27.9592 17.4434 25.9275 20.4289 23.3902 22.954C19.9762 26.3388 15.8134 28.8744 11.2378 30.356C10.8471 30.4789 10.5393 30.5645 10.3223 30.6207C10.322 30.6208 10.3216 30.6209 10.3213 30.6209L10.0636 30.6853L10.0618 30.6857L9.99022 30.7031L9.9902 30.703L9.9822 30.7052L9.98177 30.7053C9.97384 30.7059 9.96187 30.7068 9.94635 30.7075C9.91217 30.7092 9.86128 30.7104 9.79867 30.7084C9.67221 30.7042 9.5046 30.6866 9.33282 30.6353C8.9975 30.5352 8.66185 30.3164 8.55059 29.8014L8.55052 29.8011C8.51744 29.6488 8.51472 29.4915 8.5425 29.3382C8.57028 29.1849 8.62802 29.0385 8.71244 28.9074C8.79686 28.7764 8.90631 28.6632 9.03455 28.5744C9.16279 28.4855 9.30731 28.4228 9.45985 28.3898L9.69633 28.3385Z" fill="white" stroke="#3C3E5A" stroke-width="0.6"/>
<path d="M2.07189 31.1667L2.07123 31.166C-0.205975 28.8667 -0.0772592 25.1092 1.27116 21.3713L1.00207 21.2742L1.27116 21.3713C2.65798 17.5262 5.47544 13.2332 9.36036 9.35223C13.2453 5.47128 17.5427 2.65659 21.3919 1.26914C25.1356 -0.0778946 28.8991 -0.204526 31.1989 2.07231L31.4109 2.28216L31.4128 2.28032L31.919 2.7916C33.8271 4.72119 35.7403 6.6457 37.6586 8.56511L37.6588 8.56527C40.077 10.981 40.1534 14.8479 38.895 18.7451C37.6127 22.7072 34.8523 27.0762 30.9579 30.9666C27.0635 34.857 22.6901 37.6147 18.7237 38.8958C14.8224 40.153 10.9513 40.0766 8.53291 37.6608L8.53275 37.6606C6.52699 35.6599 4.52805 33.6524 2.53596 31.6382C2.53588 31.6381 2.53579 31.638 2.5357 31.6379L2.07189 31.1667ZM3.50467 22.1745L3.4868 22.2239V22.2262C2.38011 25.3194 2.46746 27.6279 3.35903 28.9957H3.26307L3.76786 29.5066L4.22425 29.9684L4.22466 29.9689L5.53429 31.2891L5.53432 31.2891C6.66171 32.4252 8.27717 34.047 10.214 35.9819C11.6719 37.4405 14.3835 37.8021 17.9932 36.6361C21.5314 35.4948 25.593 32.9697 29.2766 29.288C32.9621 25.6082 35.4898 21.5526 36.6323 18.0158C37.7995 14.4098 37.4376 11.7007 35.9776 10.2441C34.0602 8.31923 32.145 6.39211 30.2321 4.46272L29.5417 3.76516L29.3679 3.5895L29.3523 3.59988C28.0388 2.48369 25.584 2.28417 22.1966 3.50362C18.7454 4.74472 14.7366 7.33976 11.0416 11.0309C7.34858 14.7203 4.75099 18.727 3.50467 22.1745Z" fill="white" stroke="#3C3E5A" stroke-width="0.6"/>
</svg>
