<svg width="42" height="42" viewBox="0 0 42 42" fill="none" xmlns="http://www.w3.org/2000/svg">
<path d="M40.2226 2.5509C35.0451 2.25922 22.5026 4.16977 13.752 14.1455C5.00136 24.1212 2.52202 35.2198 2.37617 39.5222" stroke="white" stroke-width="1.3" stroke-linejoin="round"/>
<path d="M1.30622 28.1464C0.667658 32.5972 1.03116 36.6774 2.36517 39.5224C5.69241 41.1995 15.298 42.8475 27.1026 36.022C41.8584 27.4901 40.9904 9.98892 40.9904 7.36374C40.9904 5.26359 40.2671 3.28023 39.9055 2.55107C15.8806 -4.46472 3.36835 13.7733 1.30622 28.1464ZM1.30622 28.1464L1.12452 29.6778" stroke="white" stroke-width="1.3" stroke-linejoin="round"/>
<path d="M10.033 36.4596L14.6271 40.6161" stroke="white" stroke-width="1.3" stroke-linecap="round" stroke-linejoin="round"/>
<path d="M1.8 29L6.39407 33.1565" stroke="white" stroke-width="1.3" stroke-linecap="round" stroke-linejoin="round"/>
<path d="M8.00049 17.6457L11.282 20.4897" stroke="white" stroke-width="1.3" stroke-linecap="round" stroke-linejoin="round"/>
<path d="M9.75058 15.458L13.0321 18.302" stroke="white" stroke-width="1.3" stroke-linecap="round" stroke-linejoin="round"/>
<path d="M11.5008 13.2703L14.7823 16.1143" stroke="white" stroke-width="1.3" stroke-linecap="round" stroke-linejoin="round"/>
<path d="M13.2509 11.0828L16.5324 13.9268" stroke="white" stroke-width="1.3" stroke-linecap="round" stroke-linejoin="round"/>
<path d="M15.4385 9.33262L18.72 12.1766" stroke="white" stroke-width="1.3" stroke-linecap="round" stroke-linejoin="round"/>
<path d="M20.9713 2.55098L30.8157 12.8329" stroke="white" stroke-width="1.3" stroke-linecap="round" stroke-linejoin="round"/>
<path d="M32.7846 14.8018L39.3475 21.1459" stroke="white" stroke-width="1.3" stroke-linecap="round" stroke-linejoin="round"/>
<path d="M28.1905 1.23828L40.8789 13.9267" stroke="white" stroke-width="1.3" stroke-linejoin="round"/>
<path d="M3.25127 21.1459L21.4088 38.6471" stroke="white" stroke-width="1.3" stroke-linejoin="round"/>
</svg>
