<svg width="40" height="40" viewBox="0 0 40 40" fill="none" xmlns="http://www.w3.org/2000/svg">
<path d="M39.9888 20.1436C39.9951 20.1067 39.9987 20.0694 39.9998 20.032C39.9986 19.9988 39.9952 19.9658 39.9898 19.933C39.9766 14.6406 37.8645 9.56956 34.1169 5.83261C30.3692 2.09565 25.2922 -0.00197481 19.9998 1.39509e-06L19.9708 0.000401557L19.9678 1.39509e-06H19.9664L19.9624 0.000401557C14.6894 0.00800832 9.63315 2.09969 5.89583 5.81951C2.15852 9.53934 0.0431333 14.5857 0.0107842 19.8586C-0.00332022 19.9266 -0.00359224 19.9967 0.00998428 20.0648C0.0225387 25.3575 2.13437 30.4291 5.88203 34.1665C9.62969 37.904 14.707 40.0019 19.9998 40L20.0304 39.9996L20.0318 39.9998H20.035C25.308 39.9927 30.3644 37.9016 34.1021 34.1822C37.8398 30.4628 39.9558 25.4167 39.9888 20.1438V20.1436ZM6.98898 6.9892C10.2233 3.73705 14.5627 1.82065 19.145 1.6208C18.9451 6.2032 17.029 10.5428 13.7772 13.7776C10.5444 17.0274 6.20819 18.9432 1.62878 19.145C1.83247 14.5653 3.74495 10.2282 6.98898 6.9892ZM1.62618 20.7472C6.63153 20.5459 11.3759 18.4604 14.9086 14.9088C18.4622 11.3741 20.548 6.62646 20.7474 1.6182C25.3646 1.80253 29.7428 3.71988 33.0094 6.98813C36.2761 10.2564 38.1913 14.6355 38.3734 19.2528C33.3697 19.4675 28.6287 21.552 25.0881 25.0941C21.5474 28.6362 19.4648 33.378 19.2522 38.3818C14.635 38.1975 10.2568 36.2801 6.99013 33.0119C3.72348 29.7436 1.80826 25.3645 1.62618 20.7472ZM20.8544 38.3792C21.0661 33.801 22.9793 29.4668 26.2193 26.2254C29.4593 22.9839 33.7927 21.0688 38.3708 20.855C38.162 25.4342 36.2497 29.7701 33.0091 33.0121C29.7685 36.2542 25.4335 38.1684 20.8544 38.3792Z" fill="white"/>
</svg>
