<svg width="40" height="40" viewBox="0 0 40 40" fill="none" xmlns="http://www.w3.org/2000/svg">
<path d="M20 0C8.95333 0 0 8.95467 0 20.0007C0 31.048 8.95333 40 20 40C31.0453 40 40 31.048 40 20.0007C40 8.95467 31.0453 0 20 0ZM38.638 18.978C35.6313 15.9233 29.142 11.1673 17.7367 10.9773C17.6687 9.006 17.9333 7.158 18.322 5.55467C26.7407 5.742 33.1847 9.324 36.8707 12.0193C37.9077 14.2015 38.5081 16.5654 38.638 18.978ZM19.7893 1.33867C19.8593 1.338 19.93 1.33333 20 1.33333C26.4727 1.33333 32.1833 4.64533 35.5333 9.662C31.6173 7.19133 25.838 4.58533 18.65 4.35667C18.9596 3.32555 19.3403 2.31713 19.7893 1.33867ZM11.4647 3.40733C13.6369 2.2848 16.0098 1.60347 18.4467 1.40267C16.88 5.08133 14.6613 12.7913 19.3527 20.0287C18.1862 22.3333 16.4845 24.3249 14.39 25.8367C8.488 15.126 10.33 6.67933 11.4647 3.40733ZM4.73933 9.27C6.12424 7.3063 7.87267 5.62622 9.89 4.32067C8.73667 8.426 7.81133 16.4727 13.3893 26.5153C11.716 27.5587 9.986 28.2553 8.402 28.72C4.30933 21.2527 4.23133 13.7973 4.73933 9.27ZM1.33333 20.0007C1.33333 16.9633 2.06733 14.0967 3.35933 11.5593C3.152 16.2047 3.754 22.604 7.202 29.0367C6.14064 29.2869 5.06315 29.4629 3.97733 29.5633C2.24395 26.675 1.32991 23.3692 1.33333 20.0007ZM4.71133 30.6907C8.67133 30.2133 16.4873 28.2913 20.42 20.588C22.9986 20.4452 25.5737 20.924 27.9287 21.984C21.6053 32.4513 13.3653 35.078 9.96733 35.7293C7.90383 34.4082 6.11838 32.6966 4.71133 30.6907ZM18.4613 38.598C16.0516 38.4011 13.7037 37.7346 11.55 36.636C15.682 35.582 23.112 32.36 29.018 22.5107C30.7573 23.438 32.2267 24.5887 33.4207 25.7287C29.018 32.976 22.638 36.7667 18.4613 38.598ZM21.172 38.626C25.284 36.4753 30.476 32.7667 34.296 26.6113C35.0215 27.3833 35.6944 28.2032 36.31 29.0653C33.2967 34.4653 27.682 38.2207 21.172 38.626ZM20.3707 19.384C18.9578 17.2222 18.0846 14.7528 17.8247 12.1833C29.9407 12.424 36.3287 18.142 38.6473 20.794C38.5458 23.2434 37.9592 25.6483 36.9213 27.8693C34.5 24.666 28.942 18.944 20.3707 19.384Z" fill="white"/>
</svg>
